<?xml version="1.0" standalone="no"?>
<!DOCTYPE svg PUBLIC "-//W3C//DTD SVG 20010904//EN"
 "http://www.w3.org/TR/2001/REC-SVG-20010904/DTD/svg10.dtd">
<svg version="1.0" xmlns="http://www.w3.org/2000/svg"
 width="512.000000pt" height="512.000000pt" viewBox="0 0 512.000000 512.000000"
 preserveAspectRatio="xMidYMid meet">

<g transform="translate(0.000000,512.000000) scale(0.100000,-0.100000)"
fill="#4556f5" stroke="none">
<path d="M3150 4909 c-30 -5 -59 -14 -64 -19 -6 -6 -17 -10 -26 -10 -27 0
-163 -74 -226 -122 -134 -103 -246 -271 -299 -448 -28 -94 -81 -291 -96 -360
-5 -25 -14 -52 -19 -62 -5 -9 -12 -39 -16 -66 -5 -42 -3 -57 15 -85 27 -43 79
-61 133 -45 44 13 66 42 83 112 8 28 20 76 29 106 26 96 57 214 67 260 6 25
17 59 25 77 8 17 14 36 14 42 0 21 72 145 113 197 54 66 122 118 210 163 71
35 73 35 202 36 115 0 136 -3 184 -23 29 -13 59 -28 65 -33 94 -74 140 -136
170 -228 19 -59 22 -91 37 -376 13 -260 16 -279 46 -309 57 -57 145 -40 183
35 18 35 20 47 11 87 -5 26 -13 139 -16 252 -12 355 -56 493 -206 651 -56 59
-147 113 -252 149 -72 26 -273 36 -367 19z"/>
<path d="M374 3577 c-48 -18 -82 -51 -104 -98 -23 -52 -25 -85 -6 -130 32 -76
103 -129 172 -129 51 0 119 34 150 76 26 34 29 45 29 113 0 79 -2 84 -55 137
-42 41 -123 55 -186 31z"/>
<path d="M1060 3578 c-38 -16 -69 -61 -85 -121 -22 -85 9 -169 75 -201 35 -18
123 -34 208 -40 103 -7 160 -43 208 -133 51 -96 23 -233 -62 -307 -74 -65 -85
-66 -549 -66 -248 0 -435 -4 -456 -10 -53 -15 -106 -73 -118 -129 -19 -92 15
-170 94 -210 36 -18 63 -20 265 -24 218 -3 226 -4 265 -27 66 -41 100 -81 125
-151 21 -56 26 -124 11 -133 -4 -3 -11 -20 -15 -37 -8 -44 -69 -115 -119 -141
-37 -19 -63 -22 -232 -27 -179 -6 -193 -7 -234 -31 -118 -67 -121 -226 -7
-311 l31 -24 425 -3 c402 -2 427 -4 468 -23 144 -67 200 -227 126 -359 -39
-68 -97 -115 -164 -129 -31 -7 -186 -11 -398 -11 -355 0 -406 -5 -451 -37 -37
-27 -83 -121 -78 -158 9 -54 40 -111 73 -134 59 -41 116 -51 286 -51 155 0
159 -1 183 -25 19 -18 25 -35 25 -69 0 -39 -30 -150 -60 -221 -5 -11 -13 -35
-19 -52 l-10 -33 1955 0 1954 0 0 60 c0 32 -4 81 -10 107 -5 26 -17 122 -25
213 -31 326 -35 366 -46 455 -6 50 -18 155 -25 235 -31 336 -44 457 -50 483
-3 15 -12 96 -19 180 -25 268 -44 461 -51 490 -3 15 -12 96 -19 180 -25 276
-44 461 -50 497 -3 19 -12 100 -20 180 -7 80 -19 193 -26 253 l-12 107 -1671
-1 c-1117 -1 -1679 -5 -1696 -11z m1903 -1088 c60 -27 105 -72 135 -139 22
-49 24 -62 19 -155 -6 -114 -25 -175 -85 -265 -35 -53 -118 -143 -172 -186
-150 -120 -238 -136 -280 -50 -17 35 -19 47 -10 71 13 33 48 74 65 74 6 0 21
8 34 18 171 129 237 221 248 341 4 47 2 60 -17 84 -12 15 -31 27 -45 27 -59 0
-184 -79 -271 -172 -65 -69 -99 -118 -143 -203 -89 -175 -77 -352 31 -455 37
-36 112 -90 125 -90 4 0 21 -7 36 -15 52 -27 180 -50 277 -50 90 0 273 27 295
44 5 5 23 11 40 15 42 11 172 75 227 113 26 18 50 33 53 33 7 0 25 16 124 107
95 89 188 205 250 311 36 62 62 90 61 65 -1 -9 -76 -160 -109 -218 -100 -174
-294 -390 -442 -490 -24 -16 -46 -32 -49 -35 -20 -20 -198 -109 -262 -131 -50
-18 -77 -20 -200 -16 -137 3 -281 26 -302 48 -6 5 -17 9 -26 9 -21 0 -104 45
-165 89 -49 35 -135 120 -135 133 0 4 -6 13 -12 20 -50 53 -93 208 -85 306 6
72 31 190 46 219 5 10 22 43 36 73 103 207 307 409 476 468 75 27 174 27 232
2z"/>
</g>
</svg>
